<svg width="454" height="453" viewBox="0 0 454 453" fill="none" xmlns="http://www.w3.org/2000/svg">
<path d="M400.152 22C401.642 22.0039 403.486 22.0288 405.189 22.168C407.638 22.3681 411.545 22.9012 415.757 24.957L416.166 25.1611L416.674 25.4268C421.729 28.1298 425.87 32.2708 428.573 37.3262L428.839 37.834L429.043 38.2432C431.099 42.4549 431.632 46.3618 431.832 48.8105C431.971 50.5139 431.996 52.3583 432 53.8477V313.102C432 313.768 432.142 317.693 431.196 321.626V321.627C430.484 324.59 429.307 327.423 427.712 330.021V330.021C425.595 333.468 422.716 336.14 422.244 336.61L337.313 421.308C336.843 421.777 334.174 424.638 330.735 426.741C328.144 428.326 325.319 429.493 322.365 430.201L322.364 430.202C318.445 431.141 314.535 431 313.87 431H53.8477C52.3583 430.996 50.5139 430.971 48.8105 430.832C46.2828 430.625 42.2007 430.064 37.834 427.839C32.3776 425.059 27.9414 420.622 25.1611 415.166C22.9361 410.799 22.3745 406.717 22.168 404.189C22.0288 402.486 22.0039 400.642 22 399.152V53.8477C22.0039 52.3583 22.0288 50.5139 22.168 48.8105C22.3745 46.2828 22.9361 42.2008 25.1611 37.834L25.4268 37.3262C28.2198 32.1024 32.5479 27.8546 37.834 25.1611L38.2432 24.957C42.4549 22.9012 46.3618 22.3681 48.8105 22.168C50.5139 22.0288 52.3583 22.0039 53.8477 22H400.152Z" stroke="white" stroke-width="44" stroke-linejoin="round"/>
</svg>
