<svg width="289" height="241" viewBox="0 0 289 241" fill="none" xmlns="http://www.w3.org/2000/svg">
<path d="M96.291 240.402C75.3861 240.402 61.2943 237.271 54.0156 231.008C46.8216 224.829 43.2246 212.346 43.2246 193.557V166.262C43.2246 160.337 42.6745 155.09 41.5742 150.52C40.5586 145.865 38.8659 142.268 36.4961 139.729C34.2109 137.274 30.9525 135.454 26.7207 134.27C22.4889 133.085 17.5378 132.492 11.8672 132.492H0.1875V108.244H11.8672C23.7161 108.244 31.9258 105.832 36.4961 101.008C40.9818 96.0143 43.2246 87.1699 43.2246 74.4746V47.1797C43.2246 28.3906 46.8216 15.9069 54.0156 9.72852C60.9557 3.55013 75.0475 0.460938 96.291 0.460938H115.334V24.582H99.7188C90.9167 24.582 85.0345 26.3594 82.0723 29.9141C79.11 33.638 77.6289 41.4668 77.6289 53.4004V79.9336C77.6289 93.8984 75.5553 103.716 71.4082 109.387C67.1764 115.057 59.7708 118.697 49.1914 120.305C59.7708 122.082 67.1764 125.848 71.4082 131.604C75.5553 137.274 77.6289 147.092 77.6289 161.057V187.082C77.6289 199.185 79.11 207.098 82.0723 210.822C85.0345 214.377 90.9167 216.154 99.7188 216.154H115.334V240.402H96.291ZM173.859 216.154H189.221C198.023 216.154 203.947 214.335 206.994 210.695C210.041 206.971 211.564 199.1 211.564 187.082V161.057C211.564 147.092 213.638 137.274 217.785 131.604C222.102 125.764 229.465 121.997 239.875 120.305C229.126 118.697 221.763 115.057 217.785 109.387C213.638 103.716 211.564 93.8984 211.564 79.9336V53.4004C211.564 41.5514 210.083 33.765 207.121 30.041C205.513 28.0944 203.143 26.6979 200.012 25.8516C196.88 25.0052 193.283 24.582 189.221 24.582H173.859V0.460938H192.902C214.061 0.460938 228.111 3.55013 235.051 9.72852C242.076 15.9915 245.588 28.4753 245.588 47.1797V74.4746C246.011 83.446 247.069 90.3014 248.762 95.041C250.539 99.7806 253.628 103.081 258.029 104.943C262.515 106.721 268.947 107.821 277.326 108.244H289.006V132.492H277.326C265.393 132.492 257.141 134.947 252.57 139.855C247.915 144.764 245.588 153.566 245.588 166.262V193.557C245.588 212.261 242.076 224.745 235.051 231.008C227.772 237.271 213.723 240.402 192.902 240.402H173.859V216.154Z" fill="white"/>
</svg>
